<mxfile host="app.diagrams.net" agent="Mozilla/5.0 (Windows NT 10.0; Win64; x64) AppleWebKit/537.36 (KHTML, like Gecko) Chrome/140.0.0.0 Safari/537.36 Edg/140.0.0.0" version="28.2.5">
  <diagram name="Страница — 1" id="6A503epSpr_9y4aLPfjw">
    <mxGraphModel dx="950" dy="548" grid="1" gridSize="10" guides="1" tooltips="1" connect="1" arrows="1" fold="1" page="1" pageScale="1" pageWidth="827" pageHeight="1169" math="0" shadow="0">
      <root>
        <mxCell id="0" />
        <mxCell id="1" parent="0" />
        <mxCell id="KzZIEgZaCsiPRJIb7SN0-6" value="" style="rounded=0;whiteSpace=wrap;html=1;fillColor=#f5f5f5;strokeColor=#666666;fontColor=#333333;" vertex="1" parent="1">
          <mxGeometry x="120" y="240" width="600" height="360" as="geometry" />
        </mxCell>
        <mxCell id="KzZIEgZaCsiPRJIb7SN0-12" value="&lt;p&gt;Список задач&lt;/p&gt;&lt;p&gt;1.&lt;/p&gt;&lt;p&gt;2.&lt;/p&gt;&lt;p&gt;3.&lt;/p&gt;&lt;p&gt;4.&lt;/p&gt;&lt;p&gt;5.&lt;/p&gt;&lt;p&gt;6.&lt;/p&gt;&lt;p&gt;7.&lt;/p&gt;&lt;p&gt;&lt;br&gt;&lt;/p&gt;&lt;p&gt;&lt;br&gt;&lt;/p&gt;&lt;p&gt;&lt;br&gt;&lt;/p&gt;" style="text;html=1;align=left;verticalAlign=middle;whiteSpace=wrap;rounded=0;" vertex="1" parent="1">
          <mxGeometry x="140" y="275" width="310" height="290" as="geometry" />
        </mxCell>
        <mxCell id="KzZIEgZaCsiPRJIb7SN0-14" value="Добавить" style="rounded=1;whiteSpace=wrap;html=1;" vertex="1" parent="1">
          <mxGeometry x="600" y="555" width="90" height="30" as="geometry" />
        </mxCell>
        <mxCell id="KzZIEgZaCsiPRJIb7SN0-16" value="Категории:&lt;div&gt;-&lt;font color=&quot;#ff0000&quot;&gt;высокий приоритет&lt;/font&gt;&lt;br&gt;&lt;div&gt;-&lt;font color=&quot;#0000cc&quot;&gt;средний приоритет&lt;/font&gt;&lt;/div&gt;&lt;div&gt;-&lt;font color=&quot;#99004d&quot;&gt;низкий приоритет&lt;/font&gt;&lt;/div&gt;&lt;/div&gt;&lt;div&gt;-&lt;font color=&quot;#666600&quot;&gt;незначительный приоритет&lt;/font&gt;&lt;/div&gt;&lt;div&gt;&lt;br&gt;&lt;/div&gt;" style="rounded=1;whiteSpace=wrap;html=1;align=left;fillColor=#f5f5f5;fontColor=#333333;strokeColor=#666666;" vertex="1" parent="1">
          <mxGeometry x="540" y="370" width="160" height="100" as="geometry" />
        </mxCell>
        <mxCell id="KzZIEgZaCsiPRJIb7SN0-22" value="&lt;div&gt;Ввод...&lt;/div&gt;" style="rounded=0;whiteSpace=wrap;html=1;fillColor=#f5f5f5;fontColor=#333333;strokeColor=#666666;" vertex="1" parent="1">
          <mxGeometry x="540" y="260" width="160" height="50" as="geometry" />
        </mxCell>
      </root>
    </mxGraphModel>
  </diagram>
</mxfile>
